# xmcd
#
# Track frame offsets:
# 182
# 14407
# 32210
# 44635
# 57132
# 75007
# 91160
# 109962
# 122765
#
# Disc length: 1796 seconds
#
#
# Revision: 0
# Processed by: cddbd v1.5.2PL0 Copyright (c) Steve Scherf et al.
# Submitted via: FreeRIP 2.96 
#
DISCID=69070209
DTITLE=Various Artist - Fastracks
DYEAR=1993
DGENRE=Country
TTITLE0=Shawn Camp - Confessin' My Love
TTITLE1=Emmylou Harris - Thanks To You
TTITLE2=Faith Hill - Wild One
TTITLE3=Tracy Lawrence - My Second Home
TTITLE4=Little Texas - What Might Have Been
TTITLE5=Daron Norwood - If It Wasn't For Her I Wouldn't Have You
TTITLE6=Linda Ronstadt - A River For Him
TTITLE7=Clay Walker - Live Until I Die
TTITLE8=Bob Woodruff - Hard Liquor, Cold Women, Warm Beer
EXTD=
EXTT0=[Album Version]
EXTT1=[Album Version]
EXTT2=[Album Version]
EXTT3=[Album Version]
EXTT4=[Album Version]
EXTT5=[Album Version]
EXTT6=[Album Version]
EXTT7=[Single Version]
EXTT8=[Radio Edit]
PLAYORDER=
